<svg width="40" height="40" viewBox="0 0 24 23" fill="none" xmlns="http://www.w3.org/2000/svg">
<path d="M6 20.8839C5.45 20.8839 4.97933 20.7047 4.588 20.3465C4.19667 19.9883 4.00067 19.5571 4 19.053V9.89875C4 9.39526 4.196 8.9644 4.588 8.60616C4.98 8.24793 5.45067 8.0685 6 8.06789H7V6.23704C7 4.9707 7.48767 3.89142 8.463 2.99918C9.43833 2.10695 10.6173 1.66052 12 1.65991C13.3833 1.65991 14.5627 2.10633 15.538 2.99918C16.5133 3.89203 17.0007 4.97131 17 6.23704V8.06789H18C18.55 8.06789 19.021 8.24732 19.413 8.60616C19.805 8.96501 20.0007 9.39587 20 9.89875V19.053C20 19.5565 19.8043 19.9877 19.413 20.3465C19.0217 20.7053 18.5507 20.8845 18 20.8839H6ZM6 19.053H18V9.89875H6V19.053ZM12 16.3067C12.55 16.3067 13.021 16.1276 13.413 15.7694C13.805 15.4111 14.0007 14.98 14 14.4759C14 13.9724 13.8043 13.5415 13.413 13.1833C13.0217 12.8251 12.5507 12.6456 12 12.645C11.45 12.645 10.9793 12.8244 10.588 13.1833C10.1967 13.5421 10.0007 13.973 10 14.4759C10 14.9794 10.196 15.4105 10.588 15.7694C10.98 16.1282 11.4507 16.3073 12 16.3067ZM9 8.06789H15V6.23704C15 5.47419 14.7083 4.82576 14.125 4.29176C13.5417 3.75776 12.8333 3.49076 12 3.49076C11.1667 3.49076 10.4583 3.75776 9.875 4.29176C9.29167 4.82576 9 5.47419 9 6.23704V8.06789Z" fill="#ffffff"/>
</svg>
